# Blender v2.93.1 OBJ File: 'lobby_table_03.blend'
# www.blender.org
mtllib lobby_table.mtl
o Cube
v 0.500000 0.298023 -0.331521
v 0.500000 -0.498683 -0.331521
v 0.500000 0.298023 0.497325
v 0.500000 -0.498683 0.497325
v -0.500000 0.298023 -0.331521
v -0.500000 -0.498683 -0.331521
v -0.500000 0.298023 0.497325
v -0.500000 -0.498683 0.497325
v -0.504876 0.299370 0.499277
v -0.504876 0.501317 0.499277
v -0.504876 0.299370 -0.500723
v -0.504876 0.501317 -0.500723
v 0.499244 0.299370 0.499277
v 0.499244 0.501317 0.499277
v 0.499244 0.299370 -0.500723
v 0.499244 0.501317 -0.500723
vt 0.625000 0.500000
vt 0.875000 0.500000
vt 0.875000 0.750000
vt 0.625000 0.750000
vt 0.750355 0.750000
vt 1.000355 0.750000
vt 1.000355 1.000000
vt 0.750355 1.000000
vt 0.750355 0.000000
vt 1.000355 0.000000
vt 1.000355 0.250000
vt 0.750355 0.250000
vt 0.561019 0.500000
vt 0.811019 0.500000
vt 0.811019 0.750000
vt 0.561019 0.750000
vt 0.750355 0.500000
vt 1.000355 0.500000
vt 0.255569 0.000000
vt 0.505569 0.000000
vt 0.505569 0.250000
vt 0.255569 0.250000
vt 0.505569 0.500000
vt 0.255569 0.500000
vt 0.505569 0.750000
vt 0.255569 0.750000
vt 0.505569 1.000000
vt 0.255569 1.000000
vt 0.005569 0.500000
vt 0.005569 0.750000
vt 0.209834 0.500000
vt 0.459834 0.500000
vt 0.459834 0.750000
vt 0.209834 0.750000
vn 0.0000 1.0000 0.0000
vn 0.0000 0.0000 1.0000
vn -1.0000 0.0000 0.0000
vn 0.0000 -1.0000 0.0000
vn 1.0000 0.0000 0.0000
vn 0.0000 0.0000 -1.0000
usemtl Material
s off
f 1/1/1 5/2/1 7/3/1 3/4/1
f 4/5/2 3/6/2 7/7/2 8/8/2
f 8/9/3 7/10/3 5/11/3 6/12/3
f 6/13/4 2/14/4 4/15/4 8/16/4
f 2/17/5 1/18/5 3/6/5 4/5/5
f 6/12/6 5/11/6 1/18/6 2/17/6
f 9/19/3 10/20/3 12/21/3 11/22/3
f 11/22/6 12/21/6 16/23/6 15/24/6
f 15/24/5 16/23/5 14/25/5 13/26/5
f 13/26/2 14/25/2 10/27/2 9/28/2
f 11/29/4 15/24/4 13/26/4 9/30/4
f 16/31/1 12/32/1 10/33/1 14/34/1
